<svg width="26" height="26" viewBox="0 0 26 26" fill="white" xmlns="http://www.w3.org/2000/svg">
<path fill-rule="evenodd" clip-rule="evenodd" d="M17.1543 6.46617C17.1543 8.50871 15.2811 10.1645 12.9703 10.1645C10.6595 10.1645 8.78622 8.50871 8.78622 6.46617C8.78622 4.42363 10.6595 2.76783 12.9703 2.76783C15.2811 2.76783 17.1543 4.42363 17.1543 6.46617ZM19.6647 6.46617C19.6647 9.73423 16.6675 12.3835 12.9703 12.3835C9.27303 12.3835 6.2758 9.73423 6.2758 6.46617C6.2758 3.19811 9.27303 0.548828 12.9703 0.548828C16.6675 0.548828 19.6647 3.19811 19.6647 6.46617ZM11.2969 12.7532C5.0578 12.7532 0 17.2239 0 22.7388V25.3276H25.9411V22.7388C25.9411 17.2239 20.8833 12.7532 14.6441 12.7532H11.2969ZM2.51042 22.7388C2.51042 18.4494 6.44427 14.9722 11.2969 14.9722H14.6441C19.4968 14.9722 23.4306 18.4494 23.4306 22.7388V23.1086H2.51042V22.7388Z" fill="white"/>
</svg>
