<svg width="92" height="89" viewBox="0 0 92 89" fill="none" xmlns="http://www.w3.org/2000/svg">
<g clip-path="url(#clip0_416_2535)">
<path fill-rule="evenodd" clip-rule="evenodd" d="M91.8179 33.8172C91.4542 32.8064 90.5452 32.1631 89.4997 32.1631L60.0452 31.7956L48.3633 1.60816C47.9997 0.597315 47.0906 0 46.0452 0C44.9997 0 44.0906 0.597315 43.727 1.60816L32.0452 31.7496L2.45424 32.1631C1.40879 32.1631 0.499696 32.8064 0.13606 33.8172C-0.227577 34.8281 0.0451504 35.8849 0.863332 36.5741L23.2724 56.2855L16.4542 85.9215C16.2724 86.6567 16.4542 87.4378 16.9088 88.0351C17.4088 88.6324 18.1361 89 18.8633 89C19.3179 89 19.7724 88.8622 20.1361 88.6324L45.9997 72.8725L71.7724 88.6324C72.1815 88.8622 72.5906 89 73.0452 89C73.8179 89 74.5452 88.6324 74.9997 88.0351C75.4542 87.4378 75.6361 86.6567 75.4542 85.9215L68.6361 56.2855L91.0452 36.5741C91.9088 35.8389 92.1815 34.7821 91.8179 33.8172ZM46.0452 68.094L21.2724 83.2106L27.8179 54.8152L6.63606 36.2065L34.8179 35.8389L46.0452 6.84615L57.3179 35.8389L85.3633 36.2065L64.227 54.8152L70.727 83.2106L46.0452 68.094Z" fill="#003DFF"/>
</g>
<defs>
<clipPath id="clip0_416_2535">
<rect width="92" height="89" fill="white"/>
</clipPath>
</defs>
</svg>
