<svg width="88" height="89" viewBox="0 0 88 89" fill="none" xmlns="http://www.w3.org/2000/svg">
<g clip-path="url(#clip0_416_2565)">
<mask id="path-1-inside-1_416_2565" fill="white">
<path d="M87.9744 50.5003V50.4745C87.9744 50.3973 87.9487 50.32 87.9229 50.2428C87.9229 50.217 87.8972 50.1913 87.8972 50.1913C87.8458 50.0367 87.7429 49.8822 87.6401 49.7535C87.6143 49.7277 87.6143 49.7277 87.5886 49.702C87.5372 49.6505 87.4858 49.5989 87.4086 49.5474C87.4086 49.5474 87.3829 49.5474 87.3829 49.5217C87.3315 49.4959 87.3057 49.4702 87.2543 49.4444L66.6816 37.5469V13.726C66.6816 13.6745 66.6816 13.623 66.6816 13.5715V13.5457C66.6816 13.4685 66.6558 13.3912 66.6301 13.3139C66.6301 13.2882 66.6044 13.2624 66.6044 13.2624C66.553 13.1079 66.4501 12.9534 66.3473 12.8246C66.3215 12.7989 66.3215 12.7989 66.2958 12.7731C66.2444 12.7216 66.193 12.6701 66.1158 12.6186C66.1158 12.6186 66.0901 12.6186 66.0901 12.5929C66.0387 12.5671 66.0129 12.5414 65.9615 12.5156L44.6944 0.180264C44.2572 -0.0772592 43.7172 -0.0772592 43.28 0.180264L21.9872 12.4899C21.9358 12.5156 21.9101 12.5414 21.8586 12.5671L21.8329 12.5929C21.7815 12.6444 21.7043 12.6959 21.6529 12.7474C21.6272 12.7731 21.6272 12.7731 21.6015 12.7989C21.5501 12.8762 21.4986 12.9277 21.4472 13.0049C21.3958 13.0822 21.37 13.1594 21.3443 13.2367C21.3443 13.2624 21.3186 13.2882 21.3186 13.2882C21.2929 13.3654 21.2672 13.4427 21.2672 13.52V13.5457C21.2672 13.5972 21.2672 13.6487 21.2672 13.7002V37.4954L0.694412 49.3929C0.64298 49.4187 0.617264 49.4444 0.565832 49.4702C0.565832 49.4702 0.540116 49.4702 0.540116 49.4959C0.488684 49.5474 0.411536 49.5989 0.360105 49.6505C0.334389 49.6762 0.334389 49.6762 0.308673 49.702C0.257241 49.7792 0.205809 49.8307 0.154377 49.908C0.102945 49.9852 0.0772291 50.0625 0.0515131 50.1397C0.0515131 50.1655 0.0257971 50.1913 0.0257971 50.1913C8.11908e-05 50.2685 -0.0256348 50.3458 -0.0256348 50.423V50.4488C-0.0256348 50.5003 -0.0256348 50.5518 -0.0256348 50.6033V75.2225C-0.0256348 75.7375 0.231525 76.2011 0.694412 76.4586L21.9872 88.7682C22.0387 88.794 22.0901 88.8197 22.1415 88.8455C22.193 88.8712 22.2444 88.8712 22.2958 88.897C22.3215 88.897 22.3215 88.897 22.3472 88.897C22.3987 88.897 22.4244 88.9227 22.4758 88.9227C22.5015 88.9227 22.5015 88.9227 22.5273 88.9227C22.5787 88.9227 22.6301 88.9227 22.7073 88.9227C22.7844 88.9227 22.8101 88.9227 22.8873 88.9227C22.913 88.9227 22.913 88.9227 22.9387 88.9227C22.9901 88.9227 23.0159 88.897 23.0673 88.897C23.093 88.897 23.093 88.897 23.1187 88.897C23.1702 88.8712 23.2216 88.8712 23.273 88.8455C23.3245 88.8197 23.3759 88.794 23.4273 88.7682L44.0001 76.8706L64.5729 88.7682C64.6243 88.794 64.6757 88.8197 64.7271 88.8455C64.7786 88.8712 64.83 88.8712 64.8814 88.897C64.9072 88.897 64.9072 88.897 64.9329 88.897C64.9843 88.897 65.01 88.9227 65.0615 88.9227C65.0872 88.9227 65.0872 88.9227 65.1129 88.9227C65.1643 88.9227 65.2157 88.9227 65.2929 88.9227C65.37 88.9227 65.3958 88.9227 65.4729 88.9227C65.4986 88.9227 65.4986 88.9227 65.5243 88.9227C65.5758 88.9227 65.6015 88.897 65.6529 88.897C65.6786 88.897 65.6786 88.897 65.7044 88.897C65.7558 88.8712 65.8072 88.8712 65.8587 88.8455C65.9101 88.8197 65.9615 88.794 66.0129 88.7682L87.3058 76.4586C87.7429 76.2011 88.0258 75.7375 88.0258 75.2225V50.6033C88.0001 50.6033 87.9744 50.5518 87.9744 50.5003ZM65.2929 61.342L46.8288 50.6805L65.2929 40.0191L83.757 50.6805L65.2929 61.342ZM42.5857 26.8597V48.2083L24.1216 37.5469V16.1724L42.5857 26.8597ZM63.8785 37.5211L45.4145 48.1826V26.8339L63.8785 16.1724V37.5211ZM22.7073 39.9933L41.1713 50.6548L22.7073 61.3163L4.24321 50.6548L22.7073 39.9933ZM24.1216 63.7885L42.5857 53.127V74.4757L24.1216 85.1371V63.7885ZM44.0001 3.06452L62.4641 13.726L44.0001 24.3874L25.536 13.726L44.0001 3.06452ZM2.82884 53.1013L21.2929 63.7627V85.1114L2.82884 74.4499V53.1013ZM45.4145 53.1013L63.8785 63.7627V85.1114L45.4145 74.4499V53.1013ZM66.7073 85.1371V63.7885L85.1713 53.127V74.4757L66.7073 85.1371Z"/>
</mask>
<path d="M87.9744 50.5003V50.4745C87.9744 50.3973 87.9487 50.32 87.9229 50.2428C87.9229 50.217 87.8972 50.1913 87.8972 50.1913C87.8458 50.0367 87.7429 49.8822 87.6401 49.7535C87.6143 49.7277 87.6143 49.7277 87.5886 49.702C87.5372 49.6505 87.4858 49.5989 87.4086 49.5474C87.4086 49.5474 87.3829 49.5474 87.3829 49.5217C87.3315 49.4959 87.3057 49.4702 87.2543 49.4444L66.6816 37.5469V13.726C66.6816 13.6745 66.6816 13.623 66.6816 13.5715V13.5457C66.6816 13.4685 66.6558 13.3912 66.6301 13.3139C66.6301 13.2882 66.6044 13.2624 66.6044 13.2624C66.553 13.1079 66.4501 12.9534 66.3473 12.8246C66.3215 12.7989 66.3215 12.7989 66.2958 12.7731C66.2444 12.7216 66.193 12.6701 66.1158 12.6186C66.1158 12.6186 66.0901 12.6186 66.0901 12.5929C66.0387 12.5671 66.0129 12.5414 65.9615 12.5156L44.6944 0.180264C44.2572 -0.0772592 43.7172 -0.0772592 43.28 0.180264L21.9872 12.4899C21.9358 12.5156 21.9101 12.5414 21.8586 12.5671L21.8329 12.5929C21.7815 12.6444 21.7043 12.6959 21.6529 12.7474C21.6272 12.7731 21.6272 12.7731 21.6015 12.7989C21.5501 12.8762 21.4986 12.9277 21.4472 13.0049C21.3958 13.0822 21.37 13.1594 21.3443 13.2367C21.3443 13.2624 21.3186 13.2882 21.3186 13.2882C21.2929 13.3654 21.2672 13.4427 21.2672 13.52V13.5457C21.2672 13.5972 21.2672 13.6487 21.2672 13.7002V37.4954L0.694412 49.3929C0.64298 49.4187 0.617264 49.4444 0.565832 49.4702C0.565832 49.4702 0.540116 49.4702 0.540116 49.4959C0.488684 49.5474 0.411536 49.5989 0.360105 49.6505C0.334389 49.6762 0.334389 49.6762 0.308673 49.702C0.257241 49.7792 0.205809 49.8307 0.154377 49.908C0.102945 49.9852 0.0772291 50.0625 0.0515131 50.1397C0.0515131 50.1655 0.0257971 50.1913 0.0257971 50.1913C8.11908e-05 50.2685 -0.0256348 50.3458 -0.0256348 50.423V50.4488C-0.0256348 50.5003 -0.0256348 50.5518 -0.0256348 50.6033V75.2225C-0.0256348 75.7375 0.231525 76.2011 0.694412 76.4586L21.9872 88.7682C22.0387 88.794 22.0901 88.8197 22.1415 88.8455C22.193 88.8712 22.2444 88.8712 22.2958 88.897C22.3215 88.897 22.3215 88.897 22.3472 88.897C22.3987 88.897 22.4244 88.9227 22.4758 88.9227C22.5015 88.9227 22.5015 88.9227 22.5273 88.9227C22.5787 88.9227 22.6301 88.9227 22.7073 88.9227C22.7844 88.9227 22.8101 88.9227 22.8873 88.9227C22.913 88.9227 22.913 88.9227 22.9387 88.9227C22.9901 88.9227 23.0159 88.897 23.0673 88.897C23.093 88.897 23.093 88.897 23.1187 88.897C23.1702 88.8712 23.2216 88.8712 23.273 88.8455C23.3245 88.8197 23.3759 88.794 23.4273 88.7682L44.0001 76.8706L64.5729 88.7682C64.6243 88.794 64.6757 88.8197 64.7271 88.8455C64.7786 88.8712 64.83 88.8712 64.8814 88.897C64.9072 88.897 64.9072 88.897 64.9329 88.897C64.9843 88.897 65.01 88.9227 65.0615 88.9227C65.0872 88.9227 65.0872 88.9227 65.1129 88.9227C65.1643 88.9227 65.2157 88.9227 65.2929 88.9227C65.37 88.9227 65.3958 88.9227 65.4729 88.9227C65.4986 88.9227 65.4986 88.9227 65.5243 88.9227C65.5758 88.9227 65.6015 88.897 65.6529 88.897C65.6786 88.897 65.6786 88.897 65.7044 88.897C65.7558 88.8712 65.8072 88.8712 65.8587 88.8455C65.9101 88.8197 65.9615 88.794 66.0129 88.7682L87.3058 76.4586C87.7429 76.2011 88.0258 75.7375 88.0258 75.2225V50.6033C88.0001 50.6033 87.9744 50.5518 87.9744 50.5003ZM65.2929 61.342L46.8288 50.6805L65.2929 40.0191L83.757 50.6805L65.2929 61.342ZM42.5857 26.8597V48.2083L24.1216 37.5469V16.1724L42.5857 26.8597ZM63.8785 37.5211L45.4145 48.1826V26.8339L63.8785 16.1724V37.5211ZM22.7073 39.9933L41.1713 50.6548L22.7073 61.3163L4.24321 50.6548L22.7073 39.9933ZM24.1216 63.7885L42.5857 53.127V74.4757L24.1216 85.1371V63.7885ZM44.0001 3.06452L62.4641 13.726L44.0001 24.3874L25.536 13.726L44.0001 3.06452ZM2.82884 53.1013L21.2929 63.7627V85.1114L2.82884 74.4499V53.1013ZM45.4145 53.1013L63.8785 63.7627V85.1114L45.4145 74.4499V53.1013ZM66.7073 85.1371V63.7885L85.1713 53.127V74.4757L66.7073 85.1371Z" fill="#003DFF" stroke="#003DFF" stroke-width="2" mask="url(#path-1-inside-1_416_2565)"/>
</g>
<defs>
<clipPath id="clip0_416_2565">
<rect width="88" height="89" fill="white"/>
</clipPath>
</defs>
</svg>
