<svg width="100" height="89" viewBox="0 0 100 89" fill="none" xmlns="http://www.w3.org/2000/svg">
<g clip-path="url(#clip0_416_2537)">
<path d="M25.9034 89H1.82847C0.827166 89 0 88.1807 0 87.1889V63.8178C0 62.8261 0.827166 62.0068 1.82847 62.0068H25.9034C26.9047 62.0068 27.7318 62.8261 27.7318 63.8178V87.1889C27.7318 88.1807 26.9047 89 25.9034 89ZM3.65694 85.3348H24.0749V65.5857H3.65694V85.3348Z" fill="#003DFF"/>
<path d="M49.9783 89H25.9034C24.9021 89 24.075 88.1807 24.075 87.1889V47.0441C24.075 46.0523 24.9021 45.233 25.9034 45.233H49.9783C50.9796 45.233 51.8068 46.0523 51.8068 47.0441V87.1889C51.8503 88.1807 51.0231 89 49.9783 89ZM27.7319 85.3348H48.1498V48.812H27.7319V85.3348Z" fill="#003DFF"/>
<path d="M98.1714 89H74.0965C73.0952 89 72.2681 88.1807 72.2681 87.189V33.2025C72.2681 32.2108 73.0952 31.3915 74.0965 31.3915H98.1714C99.1727 31.3915 99.9999 32.2108 99.9999 33.2025V87.1458C99.9999 88.1807 99.1727 89 98.1714 89ZM75.925 85.3348H96.3429V35.0136H75.925V85.3348Z" fill="#003DFF"/>
<path d="M74.0967 89H50.0218C49.0205 89 48.1934 88.1807 48.1934 87.189V56.0562C48.1934 55.0645 49.0205 54.2452 50.0218 54.2452H74.0967C75.098 54.2452 75.9252 55.0645 75.9252 56.0562V87.1459C75.9252 88.1807 75.098 89 74.0967 89ZM51.8503 85.3348H72.2682V57.8673H51.8503V85.3348Z" fill="#003DFF"/>
<path d="M87.9407 3.66523C87.9407 3.49275 87.8972 3.27715 87.8536 3.10467C87.8536 3.06155 87.8101 3.06155 87.8101 3.01843C87.723 2.84595 87.6795 2.71659 87.5489 2.58723C87.5489 2.58723 87.5489 2.58723 87.5053 2.54411L87.4618 2.50099C87.3312 2.37163 87.2006 2.24227 87.0265 2.15603C86.8523 2.06979 86.6347 1.98355 86.417 1.98355C86.417 1.98355 86.417 1.98355 86.3734 1.98355L72.5728 1.96742e-05C71.5715 -0.129341 70.6573 0.560582 70.5267 1.55235C70.3961 2.54411 71.0926 3.44963 72.0939 3.57899L81.7152 4.91572L56.7696 24.8372L34.3926 14.2728C33.8266 14.0141 33.2171 14.0572 32.6947 14.359L6.44309 29.4511C5.57239 29.9685 5.26764 31.0465 5.79006 31.9089C6.13834 32.4695 6.74784 32.8145 7.35733 32.8145C7.66207 32.8145 7.96682 32.7282 8.27156 32.5557L33.696 17.9811L56.2472 28.6749C56.9002 28.9768 57.6403 28.8905 58.2063 28.4593L84.3708 7.58917V18.0242C84.3708 19.016 85.198 19.8353 86.1993 19.8353C87.2006 19.8353 88.0278 19.016 88.0278 18.0242L87.9407 3.66523C87.9407 3.70835 87.9407 3.66523 87.9407 3.66523Z" fill="#003DFF"/>
</g>
<defs>
<clipPath id="clip0_416_2537">
<rect width="100" height="89" fill="white"/>
</clipPath>
</defs>
</svg>
