<svg width="42" height="40" viewBox="0 0 42 40" fill="none" xmlns="http://www.w3.org/2000/svg">
<path d="M29.0634 39.9995C27.131 39.9569 25.0614 39.4092 23.0604 38.5693C17.0075 36.0313 11.9333 32.2151 7.75054 27.2608C5.15111 24.1812 3.00672 20.8337 1.56675 17.0784C0.893511 15.3255 0.401051 13.5362 0.407285 11.6372C0.413519 9.99999 0.962081 8.61839 2.21505 7.49242C3.2062 6.60381 4.12255 5.65434 5.08253 4.73531C5.77447 4.07798 6.58485 3.69454 7.576 3.77367C8.29911 3.83453 8.92247 4.13276 9.43363 4.61967C11.1666 6.28732 12.9058 7.94281 14.5826 9.65915C15.8792 10.9799 15.792 12.5989 14.4517 13.9439C13.4918 14.9056 12.5131 15.8368 11.5406 16.7802C11.1853 17.1271 11.1666 17.1819 11.3661 17.6262C12.1266 19.3608 13.2611 20.858 14.4954 22.2883C16.4527 24.5463 18.6283 26.567 21.1966 28.1616C21.9321 28.6181 22.7238 28.9772 23.4906 29.3789C23.7835 29.5371 23.9768 29.3728 24.17 29.1841C25.1425 28.2286 26.1149 27.2669 27.0936 26.3175C28.5274 24.9237 30.2478 24.9298 31.6878 26.3235C33.2774 27.8695 34.867 29.4215 36.4503 30.9674C36.5438 31.0587 36.6374 31.1561 36.7246 31.2596C37.803 32.4768 37.8218 33.9497 36.7745 35.1913C36.5563 35.447 36.307 35.6782 36.0639 35.9156C35.2472 36.7251 34.4244 37.5285 33.614 38.3441C32.4982 39.4822 31.1393 40.0178 29.0634 39.9995Z" fill="#003DFF"/>
<path d="M23.1664 0.000137496C24.5627 0.127951 26.0464 0.401836 27.4676 0.900916C34.7423 3.445 39.2804 8.3932 41.0882 15.7272C41.244 16.3663 41.3313 17.0236 41.4123 17.6749C41.5557 18.8313 40.7329 19.8538 39.5984 19.9633C38.3765 20.079 37.3916 19.306 37.2607 18.1131C36.469 10.9616 30.7403 5.16744 23.4282 4.13276C23.1913 4.10233 22.9545 4.0719 22.7176 4.04147C21.6267 3.88322 20.8537 2.95201 20.941 1.89907C21.0345 0.785275 21.9259 -0.0120352 23.1664 0.000137496Z" fill="#003DFF"/>
<path d="M32.0244 19.9755C30.9897 19.9755 30.1668 19.2877 29.9673 18.247C29.7554 17.1271 29.3564 16.0802 28.7144 15.1247C27.2993 13.0066 25.3357 11.6555 22.7799 11.1929C21.1779 10.9069 20.5046 9.31832 21.2153 8.1254C21.6454 7.40112 22.4869 7.0116 23.3347 7.13941C28.6894 7.95498 33.24 12.3919 34.0816 17.6201C34.2873 18.88 33.3273 19.9755 32.0244 19.9755Z" fill="#003DFF"/>
</svg>
