<svg width="144" height="144" viewBox="0 0 144 144" fill="none" xmlns="http://www.w3.org/2000/svg">
<g clip-path="url(#clip0_416_2520)">
<path d="M108.786 17.2926V54.7074C108.786 62.8821 114.446 69.7991 122.306 71.6856C122.62 71.6856 123.249 72 123.563 72C123.878 72 124.507 72 124.821 72.3144V36.1572H127.965V72C128.28 72 128.908 72 129.223 71.6856C129.537 71.6856 129.852 71.6856 130.48 71.3712C138.341 69.4847 144 62.5677 144 54.393V17.2926C144 7.86026 136.14 0 126.708 0H126.393C116.646 0 108.786 7.86026 108.786 17.2926Z" fill="#003CFF"/>
<path d="M72 17.2926V54.7074C72 62.8821 77.6594 69.7991 85.5197 71.6856C85.8341 71.6856 86.4629 72 86.7773 72C87.0917 72 87.7205 72 88.0349 72.3144V36.1572H91.179V72C91.4935 72 92.1223 72 92.4367 71.6856C92.7511 71.6856 93.0655 71.6856 93.6943 71.3712C101.555 69.4847 107.214 62.5677 107.214 54.393V17.2926C107.214 7.86026 99.3537 0 89.9214 0H89.607C79.8603 0 72 7.86026 72 17.2926Z" fill="#003CFF"/>
<path d="M72 72C72 72 71.0568 40.8734 50.9345 21.0655C30.8122 1.25764 0 0 0 0C0 0 0.943231 31.1266 21.0655 50.9345C41.1878 70.7424 72 72 72 72Z" fill="#003CFF"/>
<path d="M144 144V119.162C144 93.38 122.935 72.3145 97.1529 72.3145H72.3145V94.3232H97.1529C110.987 94.3232 121.991 105.642 121.991 119.162V144H144Z" fill="#003CFF"/>
<path d="M35.8428 143.686C55.6382 143.686 71.6856 127.638 71.6856 107.843C71.6856 88.0474 55.6382 72 35.8428 72C16.0474 72 0 88.0474 0 107.843C0 127.638 16.0474 143.686 35.8428 143.686Z" fill="#003CFF"/>
</g>
<defs>
<clipPath id="clip0_416_2520">
<rect width="144" height="144" fill="white"/>
</clipPath>
</defs>
</svg>
