<svg width="146" height="144" viewBox="0 0 146 144" fill="none" xmlns="http://www.w3.org/2000/svg">
<g clip-path="url(#clip0_416_2509)">
<path d="M62.3906 10.6899C76.6422 24.8384 76.6422 47.476 62.3906 61.6244C48.139 75.4585 25.3363 75.4585 11.0847 61.31C-3.16691 47.476 -3.16691 24.524 11.0847 10.6899C25.3363 -3.14411 48.139 -3.45852 62.3906 10.6899Z" fill="#003CFF"/>
<path d="M108.312 17.607C108.312 27.3537 100.395 35.214 90.5769 35.214C80.7591 35.214 72.8416 27.3537 72.8416 17.607V0H108.312V17.607Z" fill="#003CFF"/>
<path d="M108.312 54.393C108.312 64.1397 100.395 72 90.5769 72C80.7591 72 72.8416 64.1397 72.8416 54.393V36.786H108.312V54.393Z" fill="#003CFF"/>
<path d="M145.366 17.607C145.366 27.3537 137.449 35.214 127.631 35.214C117.813 35.214 109.896 27.3537 109.896 17.607V0H145.366V17.607Z" fill="#003CFF"/>
<path d="M145.366 54.393C145.366 64.1397 137.449 72 127.631 72C117.813 72 109.896 64.1397 109.896 54.393V36.786H145.366V54.393Z" fill="#003CFF"/>
<path d="M54.4729 144H54.7896C64.2907 144 72.2083 136.14 72.2083 126.707V89.2925C72.2083 81.1179 66.5076 74.2008 58.59 72.3144C58.2733 72.3144 57.9566 72 57.3232 72C57.0065 72 56.3731 72 56.0564 71.6855V107.528H52.8894V72C52.5727 72 51.9393 72 51.6226 72.3144C51.3059 72.3144 50.6725 72.3144 50.3558 72.6288C42.4382 74.5152 36.7375 81.4323 36.7375 89.6069V127.022C37.0543 136.14 44.9718 144 54.4729 144Z" fill="#003CFF"/>
<path d="M17.4187 144H17.7354C27.2364 144 35.154 136.14 35.154 126.707V89.2925C35.154 81.1179 29.4534 74.2008 21.5358 72.3144C21.2191 72.3144 20.9024 72 20.269 72C19.9523 72 19.3189 72 19.0022 71.6855V107.528H15.8351V72C15.5184 72 14.885 72 14.5683 72.3144C14.2516 72.3144 13.6182 72.3144 13.3015 72.6288C5.70065 74.2008 0 81.1179 0 89.2925V126.707C0 136.14 7.91757 144 17.4187 144Z" fill="#003CFF"/>
<path d="M146 72V96.8384C146 122.62 124.781 143.686 98.8113 143.686H73.7917V121.677H98.8113C112.746 121.677 123.831 110.358 123.831 96.8384V72H146Z" fill="#003CFF"/>
</g>
<defs>
<clipPath id="clip0_416_2509">
<rect width="146" height="144" fill="white"/>
</clipPath>
</defs>
</svg>
