<svg width="144" height="144" viewBox="0 0 144 144" fill="none" xmlns="http://www.w3.org/2000/svg">
<g clip-path="url(#clip0_416_2498)">
<path d="M35.214 89.2925C35.214 89.6069 35.214 89.6069 35.214 89.2925C35.214 99.0393 27.3537 106.9 17.607 106.9C7.86026 106.9 0 99.0393 0 89.2925V71.6855H35.214V89.2925Z" fill="#003CFF"/>
<path d="M35.214 126.393C35.214 136.14 27.3537 144 17.607 144C7.86026 144 0 136.14 0 126.393V108.786H35.214V126.393Z" fill="#003CFF"/>
<path d="M72.0001 89.2925C72.0001 89.6069 72.0001 89.6069 72.0001 89.2925C72.0001 99.0393 64.1398 106.9 54.3931 106.9C44.6464 106.9 36.7861 99.0393 36.7861 89.2925V71.6855H72.0001V89.2925Z" fill="#003CFF"/>
<path d="M72.0001 126.393C72.0001 136.14 64.1398 144 54.3931 144C44.6464 144 36.7861 136.14 36.7861 126.393V108.786H72.0001V126.393Z" fill="#003CFF"/>
<path d="M17.9214 0H17.2926C7.86026 0 0 7.86026 0 17.2926V54.7074C0 62.8821 5.65939 69.7991 13.5197 71.6856C13.8341 71.6856 14.1485 72 14.7773 72C15.0917 72 15.7205 72 16.0349 72.3144V36.1572H19.179V72C19.4935 72 20.1223 72 20.4367 71.6856C20.7511 71.6856 21.3799 71.6856 21.6943 71.3712C29.5546 69.4847 35.214 62.5677 35.214 54.393V17.2926C35.214 7.86026 27.3537 0 17.9214 0Z" fill="#003CFF"/>
<path d="M54.7073 0H54.3929C44.9606 0 37.1003 7.86026 37.1003 17.2926V54.7074C37.1003 62.8821 42.7597 69.7991 50.62 71.6856C50.9344 71.6856 51.2488 72 51.8776 72C52.192 72 52.8209 72 53.1353 72.3144V36.1572H56.2794V72C56.5938 72 57.2226 72 57.537 71.6856C57.8514 71.6856 58.4803 71.6856 58.7947 71.3712C66.6549 69.4847 72.3143 62.5677 72.3143 54.393V17.2926C71.9999 7.86026 64.1396 0 54.7073 0Z" fill="#003CFF"/>
<path d="M72 72C72 72 72.9432 40.8734 93.0655 21.0655C112.873 0.943231 144 0 144 0C144 0 143.057 31.1266 122.934 50.9345C102.812 70.7424 72 72 72 72Z" fill="#003CFF"/>
<path d="M144 107.843C144 127.965 127.965 144 108.157 144C88.3494 144 72.3145 127.965 72.3145 108.157V107.843V72H144.314V107.843H144Z" fill="#003CFF"/>
</g>
<defs>
<clipPath id="clip0_416_2498">
<rect width="144" height="144" fill="white"/>
</clipPath>
</defs>
</svg>
