<svg width="228" height="35" viewBox="0 0 228 35" fill="none" xmlns="http://www.w3.org/2000/svg">
<g clip-path="url(#clip0_413_1884)">
<path d="M41.1496 1.03058L40.5292 3.6863H30.3555L30.769 0L35.0701 0.436014L36.8485 0.634202L41.1496 1.03058Z" fill="#003DFF"/>
<path d="M40.5293 3.68628L39.909 6.30236L29.942 7.57076H29.9006L30.3556 3.68628H40.5293Z" fill="#FFE600"/>
<path d="M29.9442 7.5708L29.9006 7.61044V7.5708H29.9442Z" fill="black"/>
<path d="M162.077 6.0248C164.393 7.92741 165.593 10.5039 165.593 13.7938C165.593 17.0837 164.435 19.6601 162.077 21.5231C159.761 23.3861 156.535 24.3374 152.4 24.3374H143.756V34.0882H140.365V3.1709H152.441C156.494 3.21054 159.72 4.1222 162.077 6.0248ZM159.637 19.4619C161.333 18.1143 162.16 16.2513 162.16 13.7938C162.16 11.2966 161.333 9.35436 159.637 8.04632C157.942 6.69864 155.502 6.0248 152.317 6.0248H143.756V21.4835H152.317C155.502 21.4835 157.942 20.8096 159.637 19.4619Z" fill="black"/>
<path d="M173.616 32.8199C171.755 31.7893 170.266 30.402 169.191 28.6183C168.116 26.8346 167.578 24.7735 167.578 22.5142C167.578 20.2548 168.116 18.2333 169.191 16.41C170.266 14.6263 171.755 13.1993 173.616 12.2084C175.477 11.2174 177.586 10.7021 179.944 10.7021C182.26 10.7021 184.369 11.2174 186.271 12.2084C188.132 13.1993 189.621 14.6263 190.655 16.41C191.73 18.1937 192.227 20.2548 192.227 22.5142C192.227 24.7735 191.689 26.795 190.655 28.6183C189.58 30.402 188.132 31.829 186.271 32.8199C184.41 33.8505 182.301 34.3262 179.944 34.3262C177.586 34.3262 175.477 33.8109 173.616 32.8199ZM184.576 30.402C185.941 29.6489 187.016 28.5787 187.76 27.1914C188.546 25.8041 188.918 24.2186 188.918 22.4745C188.918 20.6908 188.546 19.145 187.76 17.7576C186.974 16.3703 185.941 15.3001 184.576 14.547C183.211 13.7939 181.681 13.4371 179.944 13.4371C178.207 13.4371 176.677 13.7939 175.312 14.547C173.947 15.3001 172.872 16.3703 172.086 17.7576C171.3 19.145 170.928 20.7305 170.928 22.4745C170.928 24.2582 171.3 25.8041 172.086 27.1914C172.872 28.5787 173.947 29.6489 175.312 30.402C176.677 31.1551 178.207 31.5119 179.944 31.5119C181.639 31.5515 183.211 31.1551 184.576 30.402Z" fill="black"/>
<path d="M196.651 1.34766H199.918V34.0883H196.651V1.34766Z" fill="black"/>
<path d="M227.958 23.4654H207.693C207.858 25.8833 208.851 27.8255 210.588 29.3317C212.325 30.838 214.558 31.5514 217.205 31.5514C218.694 31.5514 220.1 31.274 221.341 30.7983C222.582 30.283 223.698 29.5299 224.608 28.539L226.469 30.5605C225.394 31.7893 224.07 32.7406 222.457 33.3748C220.845 34.009 219.066 34.3657 217.122 34.3657C214.641 34.3657 212.449 33.8504 210.505 32.8595C208.603 31.8289 207.073 30.4416 205.997 28.6579C204.922 26.8742 204.385 24.813 204.385 22.5537C204.385 20.2944 204.881 18.2728 205.915 16.4495C206.949 14.6658 208.355 13.2389 210.133 12.2479C211.911 11.257 213.938 10.7417 216.171 10.7417C218.404 10.7417 220.431 11.257 222.209 12.2479C223.988 13.2389 225.394 14.6262 226.386 16.4099C227.42 18.1936 227.917 20.2151 227.917 22.5141L227.958 23.4654ZM210.381 15.5378C208.81 16.9648 207.9 18.8278 207.693 21.1267H224.856C224.649 18.8278 223.74 16.9648 222.168 15.5378C220.596 14.1109 218.611 13.3974 216.254 13.3974C213.897 13.3974 211.953 14.1109 210.381 15.5378Z" fill="black"/>
<path d="M18.9 21.2458C21.1333 20.2945 22.8289 19.0261 24.0283 17.4009C25.2276 15.7758 25.848 13.9921 25.848 12.0499C25.848 9.27523 24.6486 7.17444 22.2499 5.62857C19.8513 4.0827 16.4186 3.32959 11.9108 3.32959H0L0.537638 7.80864V34.0091H6.32759V7.80864H11.9108C17.2871 7.80864 19.9753 9.3545 19.9753 12.4066C19.9753 14.3488 19.1068 15.8947 17.3698 16.9649C15.6742 17.9955 13.1928 18.5504 9.84291 18.5504L13.3996 22.8313L22.7462 34.0091H29.4874L18.9 21.2458Z" fill="black"/>
<path d="M34.0366 34.0488V14.5471H29.9836V10.8212L34.0366 10.3455L39.7438 9.43384V34.0488H34.0366Z" fill="black"/>
<path d="M68.5687 2.53711V34.2868H67.7415L64.1435 32.9788C61.993 34.3265 59.8838 35.0003 57.7332 35.0003C53.8043 35.0003 50.6198 33.9697 48.2625 31.9482C45.9052 29.9267 44.7058 27.1521 44.7058 23.5847C44.7058 19.6209 46.4428 16.2517 49.9168 13.5167C53.3907 10.7817 57.6918 9.39442 62.9028 9.35478V3.32986L68.5687 2.53711ZM58.1468 30.6005C59.7597 30.6005 61.3726 30.1249 62.9028 29.2132V13.9131C59.0153 13.9527 55.9962 14.8644 53.7629 16.7274C51.5297 18.5507 50.413 20.8893 50.413 23.664C50.413 25.9233 51.1575 27.6277 52.6463 28.8168C54.1352 30.006 55.9549 30.6005 58.1468 30.6005Z" fill="black"/>
<path d="M80.9765 15.1811V34.0486H75.2693V10.1075H76.7168L79.3223 11.257C80.1494 10.6624 81.266 10.1868 82.6722 9.86969C84.0369 9.55259 85.319 9.39404 86.477 9.39404C90.4059 9.39404 93.3422 10.2264 95.286 11.8516C97.2297 13.4767 98.181 15.6568 98.181 18.3521V34.0486H92.4737V18.9863C92.4737 15.5379 90.3645 13.8335 86.1048 13.8335C84.2024 13.7938 82.5067 14.2695 80.9765 15.1811Z" fill="black"/>
<path d="M102.772 23.2278C102.772 19.264 104.054 15.9345 106.66 13.3184C109.265 10.7023 112.449 9.39429 116.213 9.39429C118.777 9.39429 120.928 9.94921 122.665 11.0194C124.402 12.0896 125.601 13.477 126.304 15.0625C126.966 16.6876 127.338 18.4713 127.338 20.4532C127.338 21.2063 127.297 21.9198 127.172 22.6332L108.479 23.9016C108.645 25.9232 109.472 27.5087 110.919 28.6978C112.367 29.8869 114.393 30.4419 116.957 30.4419C120.1 30.4419 122.706 30.0455 124.815 29.2924V33.2561C123.12 34.366 120.1 34.9209 115.799 34.9209C112.077 34.9209 108.975 33.8903 106.494 31.7499C104.013 29.7284 102.772 26.8745 102.772 23.2278ZM115.675 13.7941C114.145 13.7941 112.78 14.349 111.498 15.4588C110.216 16.5687 109.348 18.0749 108.893 19.9775L121.507 18.9073C121.507 17.4407 121.052 16.212 120.1 15.221C119.108 14.3093 117.66 13.7941 115.675 13.7941Z" fill="black"/>
</g>
<defs>
<clipPath id="clip0_413_1884">
<rect width="228" height="35" fill="white"/>
</clipPath>
</defs>
</svg>
