<svg width="250" height="41" viewBox="0 0 250 41" fill="none" xmlns="http://www.w3.org/2000/svg">
<g clip-path="url(#clip0_357_670)">
<path d="M45.1201 1.20725L44.4399 4.31823H33.2844L33.7379 0L38.454 0.510759L40.404 0.742922L45.1201 1.20725Z" fill="#003DFF"/>
<path d="M44.4399 4.31824L43.7597 7.38279L32.831 8.86863H32.7856L33.2845 4.31824H44.4399Z" fill="#FFE600"/>
<path d="M32.8328 8.86865L32.7856 8.91509V8.86865H32.8328Z" fill="white"/>
<path d="M177.716 7.05775C180.256 9.28651 181.571 12.3046 181.571 16.1585C181.571 20.0124 180.301 23.0306 177.716 25.2129C175.177 27.3952 171.64 28.5096 167.105 28.5096H157.627V39.932H153.909V3.7146H167.15C171.594 3.76103 175.132 4.82898 177.716 7.05775ZM175.041 22.7984C176.9 21.2197 177.807 19.0374 177.807 16.1585C177.807 13.2333 176.9 10.9581 175.041 9.42581C173.182 7.8471 170.506 7.05775 167.014 7.05775H157.627V25.1665H167.014C170.506 25.1665 173.182 24.3771 175.041 22.7984Z" fill="white"/>
<path d="M190.369 38.4461C188.328 37.2389 186.695 35.6137 185.516 33.5243C184.337 31.4348 183.748 29.0203 183.748 26.3737C183.748 23.727 184.337 21.3589 185.516 19.223C186.695 17.1336 188.328 15.462 190.369 14.3012C192.409 13.1404 194.722 12.5367 197.307 12.5367C199.846 12.5367 202.159 13.1404 204.245 14.3012C206.285 15.462 207.918 17.1336 209.052 19.223C210.231 21.3125 210.775 23.727 210.775 26.3737C210.775 29.0203 210.185 31.3884 209.052 33.5243C207.873 35.6137 206.285 37.2853 204.245 38.4461C202.204 39.6534 199.891 40.2106 197.307 40.2106C194.722 40.2106 192.409 39.607 190.369 38.4461ZM202.386 35.6137C203.882 34.7315 205.061 33.4778 205.877 31.8527C206.739 30.2276 207.147 28.3703 207.147 26.3272C207.147 24.2378 206.739 22.4269 205.877 20.8017C205.016 19.1766 203.882 17.9229 202.386 17.0407C200.889 16.1585 199.211 15.7406 197.307 15.7406C195.402 15.7406 193.724 16.1585 192.228 17.0407C190.731 17.9229 189.552 19.1766 188.691 20.8017C187.829 22.4269 187.421 24.2842 187.421 26.3272C187.421 28.4167 187.829 30.2276 188.691 31.8527C189.552 33.4778 190.731 34.7315 192.228 35.6137C193.724 36.496 195.402 36.9139 197.307 36.9139C199.166 36.9603 200.889 36.496 202.386 35.6137Z" fill="white"/>
<path d="M215.626 1.57874H219.208V39.9321H215.626V1.57874Z" fill="white"/>
<path d="M249.954 27.4879H227.734C227.915 30.3203 229.003 32.5955 230.908 34.3599C232.812 36.1243 235.261 36.9601 238.163 36.9601C239.796 36.9601 241.338 36.6351 242.698 36.0779C244.059 35.4743 245.283 34.5921 246.281 33.4312L248.321 35.7993C247.142 37.2387 245.691 38.3531 243.923 39.096C242.154 39.8389 240.204 40.2568 238.073 40.2568C235.352 40.2568 232.948 39.6532 230.817 38.4924C228.731 37.2852 227.053 35.66 225.874 33.5705C224.695 31.4811 224.106 29.0666 224.106 26.4199C224.106 23.7733 224.65 21.4052 225.784 19.2693C226.917 17.1798 228.459 15.5083 230.409 14.3474C232.359 13.1866 234.581 12.583 237.03 12.583C239.478 12.583 241.7 13.1866 243.65 14.3474C245.6 15.5083 247.142 17.1334 248.231 19.2229C249.364 21.3123 249.908 23.6804 249.908 26.3735L249.954 27.4879ZM230.681 18.2014C228.958 19.8729 227.96 22.0553 227.734 24.7484H246.553C246.326 22.0553 245.328 19.8729 243.605 18.2014C241.882 16.5298 239.705 15.694 237.12 15.694C234.536 15.694 232.404 16.5298 230.681 18.2014Z" fill="white"/>
<path d="M20.7237 24.8879C23.1725 23.7735 25.0317 22.2877 26.3468 20.384C27.6619 18.4802 28.3421 16.3908 28.3421 14.1156C28.3421 10.8653 27.027 8.40435 24.3969 6.59348C21.7667 4.78261 18.0029 3.90039 13.06 3.90039H0L0.589516 9.14728V39.8392H6.93814V9.14728H13.06C18.9552 9.14728 21.9028 10.9581 21.9028 14.5335C21.9028 16.8087 20.9505 18.6195 19.0459 19.8732C17.1866 21.0805 14.4658 21.7305 10.7927 21.7305L14.6925 26.7452L24.941 39.8392H32.3327L20.7237 24.8879Z" fill="white"/>
<path d="M37.321 39.8856V17.0407H32.877V12.676L37.321 12.1189L43.5789 11.0509V39.8856H37.321Z" fill="white"/>
<path d="M75.185 2.97192V40.1645H74.278L70.3328 38.6322C67.9747 40.2109 65.662 41.0002 63.304 41.0002C58.996 41.0002 55.5042 39.793 52.9194 37.4249C50.3346 35.0569 49.0195 31.8066 49.0195 27.6276C49.0195 22.9844 50.9241 19.0376 54.7333 15.8338C58.5425 12.6299 63.2586 11.0048 68.9724 10.9583V3.90058L75.185 2.97192ZM63.7574 35.8462C65.526 35.8462 67.2945 35.289 68.9724 34.2211V16.2981C64.7097 16.3445 61.3994 17.4125 58.9506 19.5948C56.5018 21.7307 55.2775 24.4702 55.2775 27.7205C55.2775 30.3672 56.0937 32.3638 57.7262 33.7568C59.3587 35.1497 61.354 35.8462 63.7574 35.8462Z" fill="white"/>
<path d="M88.7902 17.7837V39.8856H82.5322V11.8403H84.1194L86.9763 13.1868C87.8832 12.4904 89.1076 11.9332 90.6494 11.5617C92.1459 11.1902 93.5516 11.0045 94.8214 11.0045C99.1294 11.0045 102.349 11.9796 104.48 13.8833C106.612 15.7871 107.655 18.3409 107.655 21.4983V39.8856H101.397V22.2412C101.397 18.2016 99.084 16.205 94.4132 16.205C92.3273 16.1585 90.468 16.7157 88.7902 17.7837Z" fill="white"/>
<path d="M112.688 27.2096C112.688 22.5664 114.094 18.666 116.951 15.6015C119.808 12.5369 123.3 11.0046 127.426 11.0046C130.238 11.0046 132.596 11.6547 134.501 12.9084C136.405 14.1621 137.72 15.7872 138.491 17.6445C139.217 19.5482 139.625 21.6377 139.625 23.9593C139.625 24.8416 139.579 25.6773 139.443 26.5131L118.946 27.999C119.128 30.367 120.035 32.2243 121.622 33.6173C123.209 35.0103 125.431 35.6604 128.243 35.6604C131.689 35.6604 134.546 35.196 136.859 34.3138V38.9571C134.999 40.2572 131.689 40.9072 126.973 40.9072C122.892 40.9072 119.491 39.7 116.77 37.1926C114.049 34.8246 112.688 31.4814 112.688 27.2096ZM126.837 16.1587C125.159 16.1587 123.663 16.8087 122.257 18.1088C120.851 19.4089 119.899 21.1734 119.4 23.4021L133.231 22.1485C133.231 20.4305 132.732 18.991 131.689 17.8302C130.601 16.7623 129.014 16.1587 126.837 16.1587Z" fill="white"/>
</g>
<defs>
<clipPath id="clip0_357_670">
<rect width="250" height="41" fill="white"/>
</clipPath>
</defs>
</svg>
